<svg xmlns="http://www.w3.org/2000/svg" viewBox="0 0 320 64" fill="none">
  <defs>
    <linearGradient id="dm-g2" x1="8" y1="4" x2="56" y2="60" gradientUnits="userSpaceOnUse">
      <stop offset="0" stop-color="#8b5cf6"/>
      <stop offset="1" stop-color="#4c1d95"/>
    </linearGradient>
  </defs>
  <path d="M14 6h22l14 14v34a4 4 0 0 1-4 4H14a4 4 0 0 1-4-4V10a4 4 0 0 1 4-4Z" fill="url(#dm-g2)"/>
  <path d="M36 6v10a4 4 0 0 0 4 4h10L36 6Z" fill="#c4b5fd"/>
  <rect x="17" y="34" width="22" height="3.5" rx="1.75" fill="#ede9fe" opacity="0.85"/>
  <rect x="17" y="42" width="16" height="3.5" rx="1.75" fill="#ede9fe" opacity="0.6"/>
  <circle cx="43" cy="24" r="7.5" fill="#ede9fe"/>
  <circle cx="43" cy="24" r="3.5" fill="#4c1d95"/>
  <path d="M48.5 29.5 53 36l-7.5-2.5 3-4Z" fill="#ede9fe"/>
  <text x="76" y="43" font-family="ui-sans-serif, system-ui, -apple-system, 'Segoe UI', sans-serif" font-size="30" font-weight="700" letter-spacing="-0.5" fill="#6d28d9">Docmate</text>
</svg>
